<?xml version="1.0" standalone="no"?>
<!DOCTYPE svg PUBLIC "-//W3C//DTD SVG 20010904//EN"
 "http://www.w3.org/TR/2001/REC-SVG-20010904/DTD/svg10.dtd">
<svg version="1.0" xmlns="http://www.w3.org/2000/svg"
 width="900.000000pt" height="900.000000pt" viewBox="0 0 900.000000 900.000000"
 preserveAspectRatio="xMidYMid meet">

<g transform="translate(0.000000,900.000000) scale(0.100000,-0.100000)"
fill="#000000" stroke="none">
<path d="M4310 8997 c-3 -3 -50 -8 -105 -11 -341 -23 -707 -90 -1020 -187
-379 -119 -644 -236 -995 -442 -149 -87 -359 -231 -475 -326 -200 -163 -210
-172 -381 -338 -125 -123 -181 -182 -269 -287 -22 -27 -47 -56 -56 -65 -8 -9
-29 -34 -45 -56 -16 -21 -36 -47 -44 -56 -8 -10 -32 -41 -53 -71 -20 -29 -56
-80 -80 -113 -23 -33 -58 -85 -77 -115 -18 -30 -56 -91 -83 -135 -79 -128
-267 -493 -267 -519 0 -3 -12 -31 -26 -62 -102 -222 -235 -685 -283 -984 -47
-287 -51 -349 -51 -740 0 -211 4 -411 10 -444 5 -34 16 -115 25 -181 163
-1238 884 -2392 1933 -3100 612 -412 1238 -646 1992 -745 226 -29 833 -29
1060 0 727 95 1347 320 1924 697 294 193 479 344 741 607 564 566 957 1249
1164 2026 100 376 161 879 148 1227 -28 774 -217 1466 -579 2118 -189 341
-483 724 -767 999 -148 143 -162 156 -215 201 -27 22 -69 58 -95 80 -26 22
-60 50 -76 62 -132 100 -178 133 -225 164 -138 92 -209 137 -265 169 -33 18
-62 36 -65 39 -3 3 -27 17 -55 30 -27 13 -61 32 -75 41 -22 14 -90 47 -311
149 -372 171 -908 305 -1409 352 -134 12 -542 24 -550 16z m720 -136 c847
-110 1616 -442 2269 -980 156 -128 446 -417 573 -571 584 -706 917 -1512 1004
-2430 20 -216 15 -682 -10 -885 -118 -950 -491 -1768 -1128 -2473 -238 -263
-572 -545 -878 -739 -1128 -716 -2496 -885 -3761 -464 -920 307 -1732 927
-2267 1732 -593 893 -842 1966 -702 3018 207 1551 1209 2864 2655 3479 380
161 845 281 1250 321 61 6 126 13 145 15 19 2 181 3 360 1 260 -2 358 -7 490
-24z"/>
<path d="M4210 8690 c-760 -59 -1434 -289 -2053 -701 -65 -43 -123 -83 -130
-89 -6 -5 -57 -44 -112 -86 -55 -43 -143 -114 -195 -159 -104 -90 -352 -341
-415 -420 -22 -27 -48 -59 -58 -70 -36 -39 -194 -251 -253 -340 -336 -501
-570 -1104 -659 -1695 -57 -379 -61 -837 -10 -1205 84 -603 287 -1160 613
-1680 240 -381 571 -751 931 -1039 548 -438 1216 -739 1897 -856 237 -40 352
-51 620 -57 289 -6 466 3 709 38 567 81 1104 275 1595 576 134 82 279 186 515
371 86 67 408 390 505 506 583 700 917 1532 980 2436 43 630 -70 1307 -316
1892 -60 142 -166 361 -208 426 -14 23 -26 44 -26 47 0 14 -175 282 -251 387
-227 307 -526 619 -779 811 -9 7 -36 28 -60 48 -104 82 -327 232 -447 300
-532 303 -1075 480 -1671 545 -168 18 -567 26 -722 14z m695 -145 c360 -35
738 -127 1085 -262 252 -99 623 -296 805 -428 123 -89 244 -181 320 -245 111
-92 369 -345 450 -441 33 -40 65 -77 70 -83 36 -38 221 -292 280 -382 568
-880 772 -1926 580 -2970 -176 -961 -711 -1837 -1496 -2452 -597 -467 -1271
-743 -2049 -839 -203 -25 -715 -25 -915 0 -845 105 -1580 427 -2205 967 -119
103 -262 242 -349 340 -36 41 -87 97 -112 125 -94 103 -286 375 -391 555 -291
495 -473 1052 -540 1645 -20 183 -17 692 5 875 88 712 330 1343 728 1901 108
152 111 156 232 298 227 266 532 536 826 731 804 532 1713 758 2676 665z"/>
<path d="M4225 8414 c-203 -19 -279 -29 -404 -50 -1108 -185 -2102 -865 -2695
-1844 -455 -750 -643 -1652 -530 -2535 128 -998 644 -1918 1432 -2553 591
-476 1290 -765 2054 -848 185 -21 597 -23 773 -5 169 17 405 56 554 91 1212
290 2225 1151 2710 2306 156 374 259 802 292 1219 13 164 7 581 -11 725 -112
919 -488 1704 -1120 2340 -507 510 -1118 861 -1813 1039 -161 42 -315 71 -508
97 -108 14 -638 27 -734 18z m745 -68 c826 -115 1511 -429 2119 -972 719 -641
1167 -1529 1267 -2509 22 -216 15 -664 -14 -875 -121 -879 -509 -1655 -1134
-2265 -311 -304 -617 -523 -998 -712 -411 -204 -840 -328 -1335 -385 -168 -19
-627 -16 -810 6 -532 63 -1041 228 -1490 484 -994 566 -1693 1550 -1899 2672
-48 260 -60 405 -60 700 0 295 14 459 59 706 201 1087 860 2041 1810 2617 145
88 439 235 585 292 314 123 682 212 1027 250 174 19 712 13 873 -9z"/>
<path d="M4640 8173 c0 -21 -3 -55 -6 -75 -6 -36 -5 -38 19 -38 30 0 37 15 37
85 0 39 -4 54 -16 59 -29 11 -34 6 -34 -31z"/>
<path d="M3365 8005 c-26 -27 -35 -44 -35 -69 l0 -34 58 15 c31 8 85 16 119
16 42 1 63 6 63 14 0 7 -17 30 -38 53 -35 35 -44 40 -85 40 -40 0 -51 -5 -82
-35z m129 -16 c14 -13 7 -16 -56 -23 -64 -7 -75 4 -30 29 27 15 68 12 86 -6z"/>
<path d="M5256 7846 c-21 -106 -41 -199 -46 -205 -6 -10 -19 -10 -64 -1 -31 6
-56 15 -56 20 0 4 9 52 20 105 32 157 26 185 -41 187 -40 1 -61 -25 -57 -72 2
-27 9 -38 31 -48 19 -9 26 -19 23 -30 -3 -9 -10 -45 -17 -79 -10 -54 -14 -62
-33 -60 -15 1 -22 -4 -24 -20 -3 -23 15 -29 171 -55 57 -10 69 -10 82 3 17 17
100 412 91 435 -3 8 -14 14 -24 14 -15 0 -23 -27 -56 -194z m-166 58 c11 -12
10 -18 -3 -32 -16 -15 -18 -15 -34 0 -13 14 -14 20 -3 32 7 9 16 16 20 16 4 0
13 -7 20 -16z"/>
<path d="M4376 7978 c-9 -12 -16 -33 -16 -45 0 -27 33 -63 58 -63 15 0 17 -10
14 -105 l-4 -105 25 0 c21 0 27 6 32 33 4 17 16 48 26 68 21 41 86 102 100 94
5 -4 9 -49 9 -101 l0 -94 26 0 25 0 0 118 c-1 64 2 131 5 149 11 56 -53 94
-101 59 -14 -10 -19 -26 -20 -57 0 -36 -6 -50 -32 -78 l-33 -33 0 69 c0 85
-16 113 -65 113 -24 0 -39 -7 -49 -22z m70 -53 c-3 -9 -14 -15 -23 -13 -22 4
-30 38 -11 49 18 11 43 -15 34 -36z m194 15 c0 -24 -26 -38 -42 -22 -16 16 -2
42 22 42 13 0 20 -7 20 -20z"/>
<path d="M4224 7975 c-11 -27 17 -278 32 -302 18 -28 64 -31 87 -5 37 40 10
112 -41 112 -19 0 -22 6 -22 38 0 20 -3 67 -7 105 -5 57 -9 67 -25 67 -10 0
-21 -7 -24 -15z m101 -260 c0 -13 -8 -21 -22 -23 -19 -3 -23 1 -23 23 0 22 4
26 23 23 14 -2 22 -10 22 -23z"/>
<path d="M4847 7963 c-16 -19 -20 -34 -18 -71 1 -17 10 -27 32 -35 l30 -12 -7
-75 c-3 -41 -10 -81 -14 -88 -4 -9 -25 28 -55 97 -42 99 -49 109 -66 100 -11
-5 -19 -14 -19 -19 0 -21 84 -206 98 -217 26 -21 70 -16 85 10 8 12 20 81 27
156 l13 135 -23 18 c-28 23 -62 23 -83 1z m63 -47 c0 -28 -24 -41 -40 -21 -16
20 -5 45 20 45 14 0 20 -7 20 -24z"/>
<path d="M4072 7878 c17 -220 23 -238 78 -238 37 0 60 24 60 61 0 33 -31 69
-59 69 -17 0 -20 11 -26 100 -8 100 -8 100 -34 100 l-27 0 8 -92z m102 -165
c4 -9 0 -23 -9 -32 -13 -14 -17 -14 -30 0 -19 19 -10 49 15 49 10 0 21 -8 24
-17z"/>
<path d="M3894 7944 c-8 -3 -8 -22 2 -67 21 -97 19 -106 -31 -154 -25 -23 -45
-41 -45 -39 0 33 -45 205 -57 218 -21 24 -58 23 -83 -2 -39 -39 -14 -110 39
-110 28 0 29 -1 46 -97 9 -54 20 -101 24 -105 13 -15 49 5 56 30 8 35 52 92
70 92 8 0 16 -16 20 -41 9 -52 41 -70 79 -45 14 9 28 27 32 40 9 36 -20 94
-50 102 -28 7 -28 8 -49 114 -12 63 -24 76 -53 64z m-146 -88 c4 -21 -14 -37
-35 -29 -14 5 -18 35 -6 47 12 12 38 1 41 -18z m262 -172 c0 -30 -16 -31 -24
-1 -11 40 -8 51 9 37 8 -7 15 -23 15 -36z"/>
<path d="M3558 7873 c-24 -6 -23 -9 17 -134 19 -60 35 -118 35 -128 0 -23 -17
-34 -72 -49 l-38 -10 -38 121 c-32 102 -42 124 -65 137 -24 13 -30 13 -54 0
-57 -32 -36 -115 30 -122 27 -3 32 -9 47 -53 31 -91 32 -102 11 -108 -14 -3
-18 -11 -14 -26 3 -12 9 -21 14 -21 5 0 53 14 106 31 101 32 133 51 133 78 0
23 -83 291 -90 290 -3 -1 -13 -3 -22 -6z m-164 -110 c4 -9 0 -23 -9 -32 -15
-15 -18 -14 -30 3 -11 14 -12 23 -4 33 16 18 36 16 43 -4z"/>
<path d="M5399 7845 c-23 -12 -46 -44 -37 -50 2 -1 28 -12 59 -24 31 -12 67
-33 79 -46 20 -21 22 -29 14 -57 -8 -27 -15 -34 -41 -36 -42 -4 -65 -32 -61
-73 4 -46 42 -68 83 -48 22 11 33 29 52 83 13 39 23 83 23 98 0 36 -36 73 -98
100 -43 19 -45 22 -25 31 17 7 34 2 85 -27 74 -41 108 -46 108 -16 0 11 -7 20
-15 20 -8 0 -39 14 -68 30 -59 33 -115 38 -158 15z m91 -261 c11 -12 10 -18
-3 -32 -16 -15 -18 -15 -34 0 -13 14 -14 20 -3 32 7 9 16 16 20 16 4 0 13 -7
20 -16z"/>
<path d="M3236 7755 c-11 -8 -36 -15 -56 -15 -70 0 -145 -69 -138 -125 3 -24
19 -24 101 0 53 14 61 15 82 1 35 -23 41 -53 16 -80 -27 -28 -27 -70 0 -97 27
-27 67 -21 92 13 l20 27 -29 73 c-37 93 -61 118 -112 118 -21 0 -53 -5 -71
-11 -18 -6 -35 -8 -38 -5 -15 15 28 38 87 46 68 10 95 26 84 53 -7 21 -13 21
-38 2z m69 -270 c0 -23 -34 -33 -45 -14 -13 20 1 40 24 37 13 -2 21 -10 21
-23z"/>
<path d="M5663 7735 c-16 -34 -16 -36 4 -63 26 -36 59 -52 107 -52 30 0 45 7
72 34 40 40 42 52 13 61 -15 5 -25 2 -31 -8 -27 -48 -75 -66 -58 -22 11 30 -1
70 -25 79 -40 15 -65 6 -82 -29z m75 -28 c4 -20 -25 -34 -40 -19 -15 15 -1 44
19 40 10 -2 19 -11 21 -21z"/>
<path d="M5882 7546 c-34 -74 -62 -142 -62 -150 0 -26 38 -56 69 -56 55 0 80
71 40 111 l-21 21 42 91 c40 86 41 91 24 104 -10 7 -20 13 -23 13 -4 0 -34
-60 -69 -134z m26 -144 c3 -16 -2 -22 -17 -22 -24 0 -35 15 -27 36 9 23 40 13
44 -14z"/>
<path d="M2864 7606 c-43 -19 -74 -62 -74 -103 0 -29 3 -34 21 -31 16 2 23 11
25 33 4 35 36 65 70 65 27 0 37 -13 110 -156 27 -51 52 -94 55 -94 3 0 13 6
24 13 17 13 15 20 -45 132 -35 65 -71 126 -81 136 -22 22 -61 24 -105 5z"/>
<path d="M6072 7577 c-27 -29 -28 -64 -2 -92 l20 -21 -30 -47 c-16 -26 -39
-66 -51 -89 -20 -40 -20 -42 -3 -55 21 -15 8 -23 166 101 77 61 114 84 116 74
2 -9 -28 -69 -67 -134 l-70 -119 22 -17 c21 -16 22 -16 51 35 16 29 48 84 71
123 57 95 60 106 34 137 -32 41 -67 36 -136 -21 -86 -71 -90 -71 -50 0 42 76
45 96 17 126 -27 28 -61 28 -88 -1z m64 -32 c8 -20 -13 -45 -32 -38 -14 5 -19
34 -7 46 11 12 33 7 39 -8z"/>
<path d="M5605 7566 c-48 -48 -24 -103 54 -127 56 -17 99 -3 129 41 23 34 23
35 3 44 -16 7 -26 3 -50 -23 -39 -42 -49 -39 -44 12 5 45 -3 59 -44 71 -17 5
-29 1 -48 -18z m54 -29 c8 -10 7 -18 -3 -32 -15 -21 -36 -13 -36 14 0 31 20
40 39 18z"/>
<path d="M2598 7450 c-40 -22 -69 -58 -86 -109 -18 -50 -16 -54 23 -47 33 7
35 5 35 -20 0 -26 94 -184 109 -184 3 0 14 6 23 13 15 12 12 20 -33 90 -51 79
-56 94 -43 136 7 22 5 23 -30 19 -44 -5 -45 5 -4 43 25 24 39 29 67 27 33 -3
41 -10 99 -98 35 -52 67 -101 71 -109 9 -14 51 -7 51 9 0 20 -141 225 -162
237 -33 18 -77 15 -120 -7z"/>
<path d="M6830 7353 c-42 -90 -48 -123 -25 -123 10 0 39 12 64 27 55 32 62 41
-126 -174 -78 -89 -144 -171 -148 -183 -18 -56 62 -93 105 -50 24 24 25 48 6
76 -14 20 -6 31 134 192 81 95 150 178 153 184 7 21 -12 48 -34 48 -11 0 -37
-11 -57 -25 -20 -14 -40 -25 -44 -25 -5 0 3 22 17 50 30 59 31 70 6 70 -14 0
-28 -19 -51 -67z m-152 -467 c-2 -13 -10 -21 -23 -21 -23 0 -33 34 -14 45 20
13 40 -1 37 -24z"/>
<path d="M6386 7339 c-30 -28 -38 -45 -47 -94 -6 -33 -22 -77 -35 -98 -24 -37
-25 -39 -7 -53 20 -15 31 -6 79 60 20 28 22 29 45 13 32 -23 42 -21 78 9 58
48 52 19 -13 -72 -37 -50 -66 -94 -66 -97 0 -4 9 -11 19 -17 18 -9 28 1 91 86
39 53 73 101 76 108 3 7 20 18 39 25 35 12 42 25 26 50 -7 10 -13 11 -31 1
-12 -6 -23 -10 -24 -8 -1 2 -7 15 -13 29 -19 43 -77 81 -132 87 -44 4 -52 1
-85 -29z m119 -23 c35 -15 73 -70 55 -81 -11 -7 -50 12 -50 24 0 5 -13 14 -29
19 -22 8 -36 7 -56 -4 -16 -8 -30 -12 -32 -10 -9 9 19 47 40 56 30 12 33 12
72 -4z m-30 -97 c0 -15 -7 -25 -18 -27 -22 -4 -33 24 -17 43 18 21 35 13 35
-16z"/>
<path d="M2386 7291 c-18 -20 -16 -23 68 -127 l87 -107 -23 -24 c-13 -14 -36
-34 -51 -45 -27 -19 -29 -19 -48 -3 -23 22 -25 52 -4 75 14 15 14 19 0 30 -11
9 -22 9 -46 1 -42 -15 -55 -4 -24 21 47 36 23 108 -37 108 -30 0 -68 -38 -68
-69 0 -26 22 -72 43 -89 8 -7 26 -13 41 -14 21 -2 26 -8 26 -28 0 -24 21 -63
57 -107 l18 -22 88 71 c48 39 87 78 87 87 0 13 -136 195 -189 254 -4 4 -16 -1
-25 -12z m-56 -116 c15 -18 5 -35 -21 -35 -12 0 -19 7 -19 18 0 33 20 42 40
17z"/>
<path d="M2096 7049 c-34 -27 -33 -48 10 -149 l35 -84 -60 57 c-65 62 -97 71
-131 37 -25 -25 -25 -51 -2 -78 24 -30 65 -37 86 -17 16 16 21 12 90 -61 65
-70 75 -77 90 -65 9 7 16 18 16 23 0 5 -27 73 -60 150 -41 97 -57 145 -50 152
7 7 43 -23 115 -96 97 -99 105 -105 119 -89 15 16 8 26 -94 129 -60 62 -116
112 -123 112 -8 0 -26 -9 -41 -21z m-73 -173 c8 -20 -8 -38 -29 -34 -22 4 -31
37 -13 48 15 10 36 3 42 -14z"/>
<path d="M6873 6984 c-24 -25 -26 -43 -9 -85 5 -12 -14 -36 -68 -86 -72 -68
-75 -71 -57 -87 18 -16 27 -14 165 43 92 38 148 56 152 49 4 -6 -38 -54 -92
-108 -54 -54 -100 -103 -102 -108 -1 -5 4 -15 12 -21 12 -10 33 6 125 95 119
115 129 134 88 172 -30 28 -34 28 -124 -8 -41 -16 -80 -30 -86 -30 -6 0 14 26
46 58 62 63 69 87 34 120 -30 29 -52 28 -84 -4z m67 -38 c0 -31 -30 -43 -47
-20 -15 21 -1 44 28 44 13 0 19 -7 19 -24z"/>
<path d="M2573 6958 c-45 -58 8 -139 72 -110 21 10 27 8 47 -18 21 -26 25 -27
42 -15 18 14 17 17 -30 82 -44 59 -54 68 -85 71 -21 2 -40 -2 -46 -10z m66
-32 c15 -18 3 -46 -19 -46 -10 0 -21 7 -24 16 -6 16 9 44 24 44 4 0 13 -6 19
-14z"/>
<path d="M4465 6876 c-16 -23 -27 -104 -84 -589 -15 -136 -31 -250 -34 -254
-3 -3 -190 23 -415 57 -242 38 -419 60 -435 56 -35 -8 -46 -49 -22 -76 10 -11
102 -47 219 -86 110 -37 251 -85 313 -106 l112 -40 -30 -46 c-42 -67 -70 -148
-76 -224 l-6 -68 -42 0 c-72 0 -842 -29 -1050 -40 -400 -21 -656 -42 -730 -61
-45 -12 -95 -54 -95 -79 0 -50 58 -61 413 -75 92 -4 167 -9 167 -12 0 -3 -12
-19 -27 -37 -72 -86 -72 -197 2 -284 40 -48 94 -72 160 -72 133 0 220 86 219
217 0 52 -6 70 -33 114 l-32 52 163 -7 c90 -3 214 -9 276 -13 l113 -6 -19 -21
c-56 -64 -77 -132 -61 -204 43 -205 324 -237 410 -48 33 74 16 193 -34 235
-10 7 -17 16 -17 20 0 3 82 2 182 -2 181 -8 183 -8 223 -38 194 -143 427 -142
616 2 34 27 39 28 217 35 l182 7 -31 -57 c-28 -51 -31 -65 -27 -121 9 -141
138 -233 277 -195 65 17 135 91 150 159 14 68 0 134 -41 184 -16 21 -28 40
-27 42 4 3 552 33 557 30 1 -1 -12 -26 -30 -55 -28 -45 -33 -62 -33 -114 1
-131 88 -216 219 -216 67 0 93 9 141 52 92 80 100 212 18 307 l-33 40 42 5
c24 3 112 10 197 16 85 6 177 15 204 21 104 19 129 66 54 99 -37 17 -142 24
-862 64 -451 25 -859 48 -907 52 l-88 6 0 53 c0 71 -32 172 -76 236 -19 29
-31 55 -27 59 4 4 139 47 298 95 365 111 415 134 381 180 -23 32 -84 28 -396
-24 -373 -61 -478 -76 -487 -68 -3 4 -32 182 -63 396 -32 214 -63 405 -69 424
-18 52 -60 64 -86 23z m111 -474 c31 -216 55 -394 53 -396 -2 -2 -29 0 -59 5
-30 5 -81 7 -112 3 -33 -3 -58 -2 -58 3 0 34 92 799 97 807 12 19 22 -33 79
-422z m-626 -363 c179 -27 332 -52 340 -55 9 -3 -1 -13 -30 -30 -25 -14 -57
-37 -72 -51 l-26 -25 -279 93 c-153 51 -296 101 -318 111 l-40 19 50 -6 c28
-3 196 -29 375 -56z m1525 52 c-6 -5 -150 -53 -321 -106 l-312 -96 -67 43
c-66 42 -67 43 -39 50 16 4 175 30 354 59 179 28 327 53 329 55 2 2 18 4 35 4
19 0 26 -4 21 -9z m-872 -136 c91 -24 148 -55 210 -116 100 -101 151 -251 128
-382 -31 -177 -161 -319 -331 -363 -179 -46 -380 32 -478 185 -93 145 -96 340
-8 479 102 162 300 244 479 197z m-579 -543 c3 -21 22 -71 42 -111 20 -40 34
-75 31 -77 -6 -7 -1938 83 -1945 90 -14 15 26 36 86 45 153 25 559 51 1092 71
157 6 314 12 350 13 36 2 126 4 201 5 l136 2 7 -38z m1893 -11 c479 -27 877
-52 884 -57 24 -15 -31 -23 -239 -39 -382 -28 -1649 -91 -1658 -83 -2 3 9 29
25 59 16 30 37 80 46 112 15 51 19 57 43 57 15 0 419 -22 899 -49z m-3027
-196 c34 -17 56 -44 75 -88 20 -49 19 -90 -4 -135 -24 -46 -46 -67 -96 -87
-61 -26 -118 -13 -173 40 -44 41 -46 46 -50 106 -3 55 0 69 20 98 56 82 145
107 228 66z m3410 0 c57 -30 90 -87 90 -156 0 -50 -19 -87 -64 -127 -115 -100
-301 9 -272 161 22 115 142 175 246 122z m-2609 -28 c84 -28 123 -89 117 -179
-4 -53 -8 -63 -45 -99 -64 -65 -157 -73 -226 -19 -32 25 -67 97 -67 136 1 69
58 143 128 164 36 11 51 11 93 -3z m1742 -1 c114 -47 139 -197 48 -279 -80
-72 -190 -60 -255 26 -26 36 -34 133 -13 173 41 80 137 115 220 80z"/>
<path d="M4263 5713 c-69 -104 -71 -108 -49 -100 9 4 66 11 128 18 121 12 287
1 386 -25 l53 -14 -19 31 c-10 18 -38 65 -62 105 l-44 72 -167 0 -168 0 -58
-87z"/>
<path d="M4415 5523 c-140 -73 -154 -253 -27 -334 52 -33 129 -39 185 -15 108
46 144 197 70 294 -49 64 -160 91 -228 55z"/>
<path d="M2737 5136 c-92 -85 4 -234 117 -181 34 16 66 65 66 100 0 25 -27 72
-52 89 -35 25 -100 21 -131 -8z"/>
<path d="M6162 5144 c-55 -38 -65 -119 -19 -162 78 -73 187 -30 187 75 0 63
-40 103 -102 103 -24 0 -54 -7 -66 -16z"/>
<path d="M3594 5116 c-43 -19 -64 -53 -64 -101 0 -61 33 -96 96 -102 60 -6 98
19 115 76 15 50 -8 103 -56 125 -40 19 -51 19 -91 2z"/>
<path d="M5313 5110 c-40 -24 -53 -48 -53 -97 1 -123 175 -142 211 -24 15 50
-8 103 -56 125 -43 21 -63 20 -102 -4z"/>
<path d="M1668 6874 c-51 -27 -77 -124 -45 -168 13 -17 17 -14 67 38 29 31 68
66 87 77 42 26 42 36 -2 55 -43 18 -72 17 -107 -2z m75 -21 c4 -3 -7 -16 -24
-29 -17 -13 -38 -32 -46 -43 -17 -26 -33 -27 -33 -3 0 45 77 101 103 75z"/>
<path d="M1813 6750 c-52 -34 -89 -130 -65 -168 13 -19 45 -3 39 20 -8 29 12
86 36 103 36 26 69 18 121 -27 45 -40 47 -45 37 -71 -24 -62 58 -117 102 -69
29 32 21 66 -25 108 -136 124 -183 144 -245 104z m251 -157 c4 -9 0 -23 -9
-32 -13 -14 -17 -14 -31 1 -9 9 -14 24 -11 32 8 21 43 20 51 -1z"/>
<path d="M7119 6661 c-16 -17 -29 -40 -29 -54 0 -22 -4 -25 -34 -25 -24 0 -49
-11 -79 -34 l-45 -35 45 -59 c24 -32 54 -71 66 -86 11 -16 31 -28 43 -28 12 0
75 40 142 91 109 82 120 93 109 110 -6 10 -15 19 -20 19 -4 0 -54 -36 -111
-80 -57 -44 -108 -80 -114 -80 -12 0 -82 84 -82 99 0 6 14 18 31 26 28 15 33
15 55 0 35 -22 44 -11 38 43 l-5 47 21 -27 c29 -37 71 -38 99 -1 59 74 -61
142 -130 74z m109 -38 c5 -17 -26 -29 -40 -15 -6 6 -7 15 -3 22 9 14 37 9 43
-7z"/>
<path d="M1502 6317 c-34 -36 -28 -69 26 -134 71 -86 71 -90 0 -50 -75 42
-100 45 -128 17 -29 -29 -25 -65 10 -92 17 -12 29 -29 28 -38 -2 -8 7 -23 20
-34 36 -29 20 -29 -53 0 -56 22 -69 25 -76 13 -16 -26 -9 -34 56 -63 76 -34
121 -63 67 -43 -40 15 -66 1 -70 -37 -8 -67 59 -77 109 -17 29 34 36 37 56 28
13 -6 23 -16 23 -22 0 -15 -39 -105 -45 -105 -3 0 -50 20 -105 45 -141 63
-190 59 -190 -18 0 -53 83 -79 114 -35 l15 21 68 -30 c53 -23 68 -34 67 -51 0
-12 9 -25 21 -30 20 -9 24 -3 63 87 23 53 42 111 42 129 0 29 -5 35 -47 55
-39 18 -48 28 -54 56 -4 19 -17 42 -29 51 l-21 16 23 21 23 21 85 -49 c47 -27
88 -49 92 -49 4 0 12 9 18 20 9 17 -3 37 -90 144 -55 68 -100 127 -100 130 0
16 39 0 149 -63 116 -67 121 -69 132 -49 8 15 8 23 -3 33 -18 18 -250 145
-264 145 -6 0 -20 -10 -32 -23z m-35 -198 c16 -16 5 -39 -17 -39 -23 0 -34 16
-26 35 6 18 28 19 43 4z m-24 -255 c9 -9 -4 -34 -18 -34 -14 0 -27 25 -18 34
4 3 12 6 18 6 6 0 14 -3 18 -6z m-135 -76 c7 -7 12 -17 12 -24 0 -19 -32 -26
-48 -10 -13 12 -13 18 -2 30 15 19 22 20 38 4z"/>
<path d="M7468 6192 c-4 -15 2 -22 28 -31 62 -22 96 -98 60 -134 -18 -18 -196
-110 -196 -102 0 4 29 35 65 69 46 44 65 70 65 87 0 29 -33 69 -56 69 -19 0
-56 -19 -66 -34 -13 -19 -9 -59 8 -77 14 -16 12 -19 -20 -44 -29 -22 -36 -34
-36 -60 0 -44 25 -68 59 -60 57 14 206 103 224 134 27 45 15 103 -32 153 -43
45 -95 61 -103 30z m-28 -97 c13 -16 6 -35 -15 -35 -18 0 -28 17 -21 35 7 19
20 19 36 0z"/>
<path d="M1203 6179 c-9 -9 -7 -21 8 -48 19 -36 24 -67 13 -95 -5 -14 -8 -14
-27 -1 -45 31 -97 6 -97 -47 0 -53 65 -76 112 -38 55 43 76 151 41 211 -18 31
-32 36 -50 18z m-18 -189 c0 -8 -10 -16 -22 -18 -18 -3 -23 2 -23 18 0 16 5
21 23 18 12 -2 22 -10 22 -18z"/>
<path d="M7743 6135 c-71 -30 -34 -128 43 -113 9 1 26 15 37 29 17 24 18 30 6
54 -18 36 -47 46 -86 30z m44 -36 c16 -16 5 -39 -17 -39 -25 0 -35 18 -20 35
15 18 22 19 37 4z"/>
<path d="M7610 5906 c0 -19 6 -25 27 -28 35 -4 68 -48 59 -81 -5 -21 -27 -34
-131 -77 -69 -29 -125 -58 -125 -64 0 -6 4 -17 9 -25 7 -11 32 -4 132 38 68
28 131 59 141 68 23 21 24 95 2 132 -20 33 -39 46 -82 56 -29 6 -32 5 -32 -19z"/>
<path d="M994 5666 c-28 -28 -34 -41 -34 -79 0 -44 31 -106 56 -114 7 -2 19
20 29 51 10 30 33 78 51 107 19 28 34 55 34 60 0 5 -23 9 -51 9 -45 0 -55 -4
-85 -34z m66 -9 c0 -1 -9 -20 -20 -42 -11 -22 -20 -45 -20 -52 0 -18 -17 -16
-24 3 -12 32 21 94 51 94 7 0 13 -1 13 -3z"/>
<path d="M1205 5688 c3 -7 -9 -36 -26 -63 -40 -63 -48 -117 -24 -161 15 -28
43 -51 50 -42 1 2 16 33 33 70 35 76 61 96 105 79 21 -8 27 -17 27 -40 0 -74
108 -96 126 -25 12 48 -8 70 -93 98 -43 14 -86 26 -95 26 -26 0 -73 -45 -93
-89 -10 -23 -22 -41 -27 -41 -18 0 -7 48 22 93 38 61 43 101 13 105 -16 2 -21
-1 -18 -10z m253 -161 c4 -20 -25 -34 -40 -19 -15 15 -1 44 19 40 10 -2 19
-11 21 -21z"/>
<path d="M7720 5620 c0 -27 -3 -30 -24 -24 -19 5 -176 -35 -208 -52 -12 -8 5
-44 21 -44 9 0 52 11 95 25 76 23 80 24 108 7 25 -15 30 -15 38 -2 5 8 10 26
10 39 0 24 1 23 25 -9 29 -40 33 -92 7 -118 -9 -9 -70 -33 -135 -52 -64 -19
-117 -39 -117 -45 0 -5 4 -16 9 -24 8 -12 29 -9 132 22 67 21 131 44 140 53
55 49 43 142 -26 211 -51 52 -75 56 -75 13z"/>
<path d="M7970 5593 c-28 -10 -40 -36 -40 -86 0 -86 46 -149 119 -163 28 -6
31 -4 31 18 0 18 -8 27 -35 37 -32 11 -75 53 -75 72 0 5 11 9 23 9 50 0 76 70
39 103 -19 17 -35 20 -62 10z m43 -47 c8 -19 -15 -37 -32 -26 -17 10 -7 40 13
40 7 0 16 -6 19 -14z"/>
<path d="M1097 5358 c-4 -12 -5 -24 -3 -25 2 -2 60 -16 130 -32 70 -16 132
-33 136 -37 12 -12 -10 -114 -24 -114 -7 0 -63 11 -126 25 -112 23 -116 24
-140 6 -51 -37 -25 -111 38 -111 29 0 62 26 62 49 0 7 6 11 13 9 6 -3 42 -11
80 -18 58 -12 67 -16 67 -36 0 -13 8 -24 20 -27 22 -6 26 5 55 143 17 81 14
114 -10 124 -14 5 -280 66 -289 66 -2 0 -6 -10 -9 -22z m31 -227 c-2 -9 -11
-17 -21 -19 -21 -4 -35 27 -17 38 19 12 42 0 38 -19z"/>
<path d="M7735 5296 c-16 -8 -45 -25 -64 -39 -18 -14 -46 -29 -62 -32 -21 -5
-29 -12 -29 -29 0 -19 13 -27 83 -54 93 -37 146 -41 170 -14 36 40 8 102 -47
102 -32 0 -66 -25 -66 -48 0 -15 -2 -15 -36 -2 l-28 11 60 39 c60 41 91 48
125 30 25 -14 49 -62 49 -100 0 -50 -26 -65 -159 -91 -118 -22 -130 -29 -112
-58 7 -11 29 -10 131 10 73 14 133 31 146 42 54 42 52 145 -5 209 -22 25 -37
31 -77 34 -29 3 -61 -1 -79 -10z m75 -126 c0 -19 -25 -34 -41 -24 -13 8 -11
42 4 47 20 7 37 -4 37 -23z"/>
<path d="M4352 4728 c-55 -139 -147 -365 -202 -503 -151 -371 -147 -345 -33
-234 231 224 238 229 228 187 -3 -13 -30 -160 -60 -328 -30 -168 -57 -314 -60
-324 -2 -11 40 24 93 78 l97 97 6 -38 c4 -21 10 -109 14 -195 4 -87 10 -158
14 -158 5 0 170 516 359 1120 3 8 -45 -34 -107 -95 -61 -60 -111 -103 -111
-95 0 16 6 44 100 449 28 123 50 225 48 227 -2 2 -53 -48 -112 -111 -59 -63
-111 -115 -116 -115 -4 0 -15 62 -25 138 -10 75 -21 140 -24 145 -4 4 -53
-106 -109 -245z"/>
<path d="M1005 4844 c-119 -62 -149 -202 -63 -300 43 -49 78 -64 146 -64 46 0
66 5 100 27 49 32 92 107 92 160 0 71 -53 151 -119 179 -44 18 -119 18 -156
-2z"/>
<path d="M7795 4827 c-58 -27 -115 -114 -115 -177 0 -65 58 -152 117 -176 42
-18 115 -18 156 0 18 7 46 29 63 47 82 88 67 221 -34 290 -42 28 -140 37 -187
16z"/>
<path d="M8040 4370 c0 -27 3 -30 30 -30 27 0 30 3 30 30 0 27 -3 30 -30 30
-27 0 -30 -3 -30 -30z"/>
<path d="M7835 4265 c-64 -22 -82 -51 -90 -145 -4 -45 -3 -85 1 -90 14 -12
318 -39 325 -28 3 5 9 44 13 85 5 63 3 81 -12 107 -35 61 -159 98 -237 71z
m138 -64 c43 -17 57 -39 57 -93 l0 -50 -77 7 c-106 10 -156 19 -154 28 0 4 1
23 1 42 0 51 31 75 96 75 29 0 64 -4 77 -9z"/>
<path d="M892 4173 c2 -23 10 -30 41 -37 24 -6 37 -15 37 -26 0 -10 3 -38 6
-64 7 -45 6 -46 -25 -57 -27 -9 -31 -16 -31 -46 0 -24 4 -33 13 -30 55 24 303
141 309 146 4 3 3 22 0 41 l-8 34 -159 33 c-88 18 -166 33 -173 33 -9 0 -12
-10 -10 -27z m251 -82 c20 -8 16 -12 -36 -35 -68 -31 -77 -32 -77 -8 0 9 -3
28 -7 41 -6 24 -5 24 46 17 28 -4 61 -11 74 -15z"/>
<path d="M7725 3958 c-8 -26 -46 -230 -43 -233 2 -1 13 -6 25 -9 20 -6 23 -3
29 32 3 22 9 44 13 50 4 7 51 1 143 -17 l137 -28 6 29 c4 16 5 30 3 32 -1 1
-63 14 -137 29 -74 15 -136 28 -137 30 -2 1 1 20 6 42 5 21 7 43 4 47 -8 13
-44 9 -49 -4z"/>
<path d="M1097 3855 c-82 -18 -150 -35 -153 -37 -2 -2 1 -20 6 -39 4 -19 16
-69 25 -111 15 -71 19 -78 41 -78 28 0 29 5 9 101 -9 40 -12 76 -8 80 5 3 25
10 45 13 36 7 37 6 47 -31 5 -21 13 -55 17 -76 6 -33 10 -38 28 -33 11 3 24 6
27 6 3 0 -2 34 -10 75 -8 41 -13 76 -11 79 3 2 21 7 41 11 l35 7 18 -81 c16
-75 19 -81 41 -81 30 0 30 0 3 127 -17 77 -27 103 -38 102 -8 0 -82 -16 -163
-34z"/>
<path d="M7921 3534 c-19 -66 -24 -74 -42 -69 -78 25 -253 75 -255 72 -1 -1
-5 -14 -9 -29 -7 -26 -5 -27 77 -51 161 -49 238 -70 241 -66 2 2 16 48 32 102
24 83 26 100 14 108 -28 17 -36 8 -58 -67z"/>
<path d="M1172 3537 c-140 -46 -152 -52 -146 -71 10 -35 17 -36 79 -17 66 21
68 20 85 -40 14 -50 5 -67 -44 -80 -49 -13 -66 -26 -60 -45 2 -8 6 -21 9 -29
3 -12 14 -10 62 11 32 14 65 35 74 46 14 17 19 19 38 8 52 -28 131 16 131 72
0 41 -52 198 -65 197 -5 0 -79 -24 -163 -52z m161 -78 c21 -66 10 -92 -36 -87
-25 2 -35 10 -49 38 -31 66 -31 75 -1 87 57 22 68 17 86 -38z"/>
<path d="M1274 3215 c-57 -28 -104 -92 -104 -140 0 -17 10 -51 23 -75 39 -79
126 -101 222 -56 106 50 139 141 83 234 -40 66 -134 82 -224 37z m159 -55 c33
-26 42 -64 22 -102 -8 -17 -15 -36 -15 -42 0 -12 -87 -36 -129 -36 -33 0 -81
52 -81 88 0 83 136 145 203 92z"/>
<path d="M2277 3148 l19 -33 2191 -3 2192 -2 20 29 c12 16 21 32 21 35 0 3
-1004 6 -2231 6 l-2231 0 19 -32z"/>
<path d="M7525 3167 c-36 -11 -44 -20 -83 -96 -24 -46 -40 -87 -35 -91 20 -19
296 -141 302 -133 4 4 22 40 39 78 27 61 30 75 22 107 -14 50 -40 80 -97 110
-62 33 -99 40 -148 25z m123 -78 c28 -14 49 -33 59 -55 15 -31 15 -36 -2 -74
-10 -22 -21 -40 -25 -40 -19 0 -200 92 -200 101 0 15 31 73 44 81 21 14 80 8
124 -13z"/>
<path d="M3317 3013 l-947 -3 22 -36 23 -35 2079 7 2080 7 22 26 c13 14 24 29
24 34 0 6 -792 6 -3303 0z"/>
<path d="M1458 2877 c-75 -45 -140 -85 -143 -89 -9 -8 13 -48 26 -48 5 0 26
10 47 23 20 13 63 38 94 56 69 39 69 37 -15 -102 -52 -87 -58 -102 -48 -123 6
-13 15 -24 21 -24 5 0 73 36 149 81 136 78 140 81 129 105 -6 13 -15 24 -19
24 -4 0 -49 -24 -101 -54 -51 -30 -95 -52 -97 -51 -2 2 26 55 62 116 63 109
65 114 51 141 -8 15 -16 28 -17 27 -1 0 -64 -37 -139 -82z"/>
<path d="M7346 2888 c-12 -17 -13 -24 -3 -30 6 -5 50 -32 97 -61 l85 -52 -136
-3 c-133 -2 -136 -3 -147 -27 -11 -23 -6 -27 129 -109 77 -47 144 -86 148 -86
4 0 13 11 19 24 11 24 7 27 -83 83 -52 32 -95 61 -95 65 0 3 60 4 133 1 127
-5 132 -4 145 16 7 12 10 26 7 31 -6 9 -269 170 -278 170 -3 0 -13 -10 -21
-22z"/>
<path d="M2499 2833 c-8 -9 -9 -14 -2 -10 6 4 20 -4 31 -18 l20 -25 1957 0
c1083 0 1954 4 1951 9 -3 4 3 16 14 26 11 10 20 22 20 27 0 4 -895 8 -1989 8
-1856 0 -1989 -1 -2002 -17z"/>
<path d="M2715 2609 c86 -89 320 -267 445 -338 333 -191 596 -284 960 -342
185 -30 526 -32 715 -6 195 28 500 107 620 162 17 7 37 15 45 17 8 2 17 5 20
8 3 3 61 33 130 68 69 34 137 70 152 80 69 45 121 71 131 65 6 -3 7 -1 3 5 -4
6 6 19 21 29 77 48 208 153 307 245 l51 48 -1820 0 -1819 0 39 -41z"/>
<path d="M1638 2537 l-157 -52 18 -24 c17 -23 22 -24 55 -14 35 11 36 11 71
-37 19 -26 35 -51 35 -55 0 -4 -9 -18 -20 -32 -18 -23 -18 -26 -3 -49 20 -31
15 -36 136 132 l94 131 -19 27 c-11 14 -27 26 -36 25 -10 0 -88 -24 -174 -52z
m136 -29 c-4 -7 -23 -35 -42 -61 l-34 -48 -24 33 c-13 17 -24 35 -24 39 0 5
108 46 128 49 2 0 0 -6 -4 -12z"/>
<path d="M7111 2529 c-13 -18 -19 -34 -14 -42 9 -14 184 -269 190 -277 3 -3
13 6 23 20 18 24 18 25 -1 56 l-19 31 35 47 c37 48 48 52 87 37 18 -7 26 -4
41 15 11 15 13 25 7 29 -6 4 -82 31 -169 60 l-159 53 -21 -29z m146 -73 c45
-15 51 -20 43 -34 -15 -26 -37 -52 -43 -52 -7 0 -77 95 -77 105 0 4 6 5 13 3
6 -3 36 -13 64 -22z"/>
<path d="M1884 2327 c-44 -40 -90 -86 -102 -103 -56 -79 9 -194 110 -194 40 0
62 14 167 109 77 70 80 75 65 93 -10 10 -21 18 -25 18 -5 0 -48 -36 -97 -79
-93 -84 -104 -89 -140 -77 -26 9 -55 58 -46 80 3 8 48 51 100 97 52 45 94 85
94 89 0 7 -34 40 -41 40 -2 -1 -40 -33 -85 -73z"/>
<path d="M6864 2239 c-19 -21 -19 -21 28 -63 26 -22 82 -73 126 -113 l79 -72
49 52 c101 106 100 105 80 125 -17 16 -20 14 -71 -41 l-54 -57 -101 92 c-56
51 -105 94 -109 96 -4 1 -16 -7 -27 -19z"/>
<path d="M2154 2159 c-19 -21 -18 -22 18 -53 l37 -32 -27 -31 c-15 -17 -58
-65 -96 -107 l-69 -77 20 -21 21 -20 70 73 c38 41 82 89 97 107 l28 33 31 -30
c37 -36 51 -38 65 -13 9 16 -4 32 -83 105 -94 86 -94 86 -112 66z"/>
<path d="M6766 2141 c-16 -17 -11 -24 100 -140 l117 -122 24 23 24 22 -118
118 c-65 65 -120 118 -124 118 -3 0 -13 -8 -23 -19z"/>
<path d="M6602 1994 c-12 -8 -22 -21 -22 -27 0 -11 119 -316 127 -326 1 -2 12
4 24 14 19 18 20 35 4 77 -3 8 14 29 41 52 l47 39 33 -18 c33 -18 35 -18 54 0
17 15 18 21 8 30 -19 18 -276 175 -285 175 -5 0 -19 -7 -31 -16z m128 -106
c25 -16 44 -31 43 -34 -1 -2 -16 -16 -33 -30 l-30 -26 -25 56 c-28 63 -31 81
-12 70 6 -5 32 -21 57 -36z"/>
<path d="M2289 1842 l-106 -128 24 -18 c28 -21 17 -30 163 148 57 70 71 93 63
105 -22 34 -41 19 -144 -107z"/>
<path d="M4919 1885 c-3 -2 -74 -12 -159 -21 -112 -12 -209 -15 -350 -12 -108
3 -173 2 -145 -3 90 -13 408 -10 527 6 132 18 198 32 157 34 -14 1 -28 -1 -30
-4z"/>
<path d="M4163 1863 c9 -2 23 -2 30 0 6 3 -1 5 -18 5 -16 0 -22 -2 -12 -5z"/>
<path d="M6413 1844 l-22 -16 35 -49 c18 -27 34 -52 34 -56 0 -5 -23 -24 -51
-43 l-51 -34 -22 25 c-11 14 -30 38 -41 52 -19 26 -21 27 -43 9 l-22 -17 92
-137 c51 -76 98 -137 103 -137 6 0 18 6 28 14 18 13 17 17 -22 74 -23 33 -41
64 -41 68 0 7 94 73 104 73 3 0 24 -27 47 -60 23 -33 45 -60 48 -60 9 1 41 26
41 33 0 9 -180 272 -188 274 -4 1 -17 -5 -29 -13z"/>
<path d="M2471 1828 c-75 -37 -128 -132 -118 -210 11 -79 97 -133 176 -110 53
16 66 34 42 56 -15 14 -24 15 -40 7 -54 -29 -121 7 -121 65 0 45 20 83 65 123
45 39 86 41 121 6 18 -18 25 -34 22 -54 -3 -30 16 -61 38 -61 19 0 29 65 14
99 -21 52 -88 101 -138 101 -9 0 -37 -10 -61 -22z"/>
<path d="M6083 1631 c-56 -31 -105 -59 -108 -63 -4 -3 -2 -16 5 -27 l11 -21
41 21 c50 25 44 30 119 -106 69 -126 61 -118 93 -104 32 15 35 4 -47 149 l-65
115 39 24 c43 25 45 30 27 53 -12 14 -24 10 -115 -41z"/>
<path d="M2722 1537 l-133 -121 27 -14 c24 -13 29 -12 57 8 l30 23 53 -29 c52
-28 53 -30 48 -65 -5 -30 -2 -39 17 -52 12 -9 24 -15 25 -14 8 8 73 341 68
348 -3 5 -17 15 -32 23 -27 13 -29 12 -160 -107z m117 -41 c-7 -36 -15 -66
-18 -66 -3 0 -21 9 -40 21 l-34 20 48 49 c27 27 50 48 52 46 2 -2 -2 -33 -8
-70z"/>
<path d="M3052 1503 c-26 -52 -111 -245 -114 -261 -3 -11 158 -92 183 -92 4 0
13 9 19 20 10 19 5 23 -57 51 -37 17 -69 32 -71 34 -2 2 23 60 54 130 56 122
57 128 39 141 -27 20 -33 18 -53 -23z"/>
<path d="M5645 1430 c-63 -23 -100 -43 -99 -51 1 -12 103 -298 109 -307 1 -1
14 3 29 9 29 13 29 14 -4 102 l-18 47 31 14 c18 7 49 18 69 25 35 11 37 14 27
34 -7 12 -13 23 -14 25 -1 1 -32 -8 -68 -22 l-66 -25 -10 31 c-6 17 -11 36
-11 42 0 7 32 23 70 36 46 16 70 30 70 40 -1 38 -14 38 -115 0z"/>
<path d="M3481 1200 c-24 -88 -42 -162 -40 -164 2 -3 16 -7 31 -11 25 -6 27
-4 39 48 17 79 17 79 76 62 53 -16 66 -34 52 -70 -21 -55 -7 -95 35 -95 16 0
37 119 24 143 -7 14 -2 24 21 46 26 24 31 37 31 73 0 59 -17 73 -126 103 -49
14 -92 25 -95 25 -3 0 -25 -72 -48 -160z m161 74 c50 -17 64 -35 48 -64 -18
-33 -41 -39 -92 -23 -51 14 -54 22 -37 72 13 36 19 37 81 15z"/>
<path d="M5315 1329 c-17 -4 -44 -22 -60 -39 -25 -27 -30 -40 -33 -99 -5 -79
10 -120 62 -170 42 -41 91 -49 151 -27 55 22 84 60 92 124 10 86 -37 180 -103
208 -37 16 -64 16 -109 3z m96 -59 c29 -16 59 -84 59 -133 0 -99 -105 -132
-167 -51 -22 29 -27 47 -27 91 -1 48 3 58 27 79 30 25 75 31 108 14z"/>
<path d="M3852 1109 c-66 -127 -79 -158 -66 -163 33 -13 52 -5 64 25 13 31 14
31 69 24 69 -9 69 -8 77 -49 4 -27 12 -35 32 -39 15 -3 29 -4 30 -2 2 2 -9 82
-25 177 l-28 173 -35 6 -36 5 -82 -157z m123 -13 l8 -59 -39 8 c-22 4 -41 9
-43 11 -3 3 7 30 23 61 15 32 31 52 36 47 4 -5 12 -35 15 -68z"/>
<path d="M4722 1225 c-70 -31 -103 -111 -84 -202 14 -65 41 -105 86 -127 45
-21 81 -20 134 4 33 15 47 29 62 62 39 85 15 203 -51 251 -35 25 -105 31 -147
12z m109 -55 c28 -16 49 -63 49 -115 0 -76 -30 -114 -90 -114 -42 0 -61 13
-83 56 -30 58 -15 146 30 172 23 13 69 14 94 1z"/>
<path d="M4165 1079 c-3 -85 -9 -162 -11 -171 -5 -16 4 -18 90 -18 87 0 97 2
125 26 56 47 78 172 42 242 -27 52 -53 64 -152 70 l-87 5 -7 -154z m177 74
c38 -34 34 -148 -7 -189 -18 -18 -35 -24 -70 -24 l-45 0 0 43 c0 24 3 79 7
121 l6 77 46 -7 c25 -3 54 -13 63 -21z"/>
<path d="M4500 1050 l0 -170 30 0 30 0 0 170 0 170 -30 0 -30 0 0 -170z"/>
</g>
</svg>
